# xmcd
#
# Track frame offsets: 
#        150
#        21906
#        37613
#        60713
#        81011
#        107700
#        130716
#        156085
#        183870
#        205531
#        222433
#        247490
#
# Disc length: 3573 seconds
#
# Revision: 2
# Processed by: cddbd v1.5.2PL0 Copyright (c) Steve Scherf et al.
# Submitted via: ExactAudioCopy v1.0b1
#
DISCID=9c0df30c
DTITLE=Rosario Giuliani - Anything Else
DYEAR=2006
DGENRE=Jazz
TTITLE0=Anything Else
TTITLE1=Blow Out
TTITLE2=Dànae
TTITLE3=Invisible
TTITLE4=This Is The Answer
TTITLE5=Backfire
TTITLE6=A Winter Day
TTITLE7=Conversation
TTITLE8=My Angel
TTITLE9=Walking Around
TTITLE10=Three Angels
TTITLE11=Hagi Mistery
EXTD=YEAR: 2006
EXTT0=
EXTT1=
EXTT2=
EXTT3=
EXTT4=
EXTT5=
EXTT6=
EXTT7=
EXTT8=
EXTT9=
EXTT10=
EXTT11=
PLAYORDER=
